<mxfile host="Electron" modified="2023-06-02T14:41:09.069Z" agent="Mozilla/5.0 (Windows NT 10.0; Win64; x64) AppleWebKit/537.36 (KHTML, like Gecko) draw.io/21.1.2 Chrome/106.0.5249.199 Electron/21.4.3 Safari/537.36" etag="NDXzxN0q-mk5UPVwc4zT" version="21.1.2" type="device">
  <diagram name="Page-1" id="tEXub8zn_StnUfkf2jUU">
    <mxGraphModel dx="1301" dy="1258" grid="1" gridSize="10" guides="1" tooltips="1" connect="1" arrows="1" fold="1" page="1" pageScale="1" pageWidth="800" pageHeight="500" math="0" shadow="0">
      <root>
        <mxCell id="0" />
        <mxCell id="1" parent="0" />
        <mxCell id="QFQLM7oPgDHJuGWCTTOq-73" value="&lt;h1&gt;Abstraction&lt;/h1&gt;" style="text;html=1;strokeColor=none;fillColor=none;spacing=5;spacingTop=-20;whiteSpace=wrap;overflow=hidden;rounded=0;" parent="1" vertex="1">
          <mxGeometry x="20" y="-485" width="140" height="40" as="geometry" />
        </mxCell>
        <mxCell id="QFQLM7oPgDHJuGWCTTOq-104" value="&lt;h1&gt;Example&lt;/h1&gt;" style="text;html=1;strokeColor=none;fillColor=none;spacing=5;spacingTop=-20;whiteSpace=wrap;overflow=hidden;rounded=0;" parent="1" vertex="1">
          <mxGeometry x="20" y="15" width="140" height="40" as="geometry" />
        </mxCell>
        <mxCell id="I_KAH7yRZfsrXpWgZWDP-10" style="edgeStyle=elbowEdgeStyle;rounded=0;orthogonalLoop=1;jettySize=auto;html=1;elbow=vertical;curved=0;" edge="1" parent="1" source="I_KAH7yRZfsrXpWgZWDP-7" target="I_KAH7yRZfsrXpWgZWDP-8">
          <mxGeometry relative="1" as="geometry">
            <Array as="points">
              <mxPoint x="310" y="-340" />
              <mxPoint x="270" y="-330" />
            </Array>
          </mxGeometry>
        </mxCell>
        <mxCell id="I_KAH7yRZfsrXpWgZWDP-7" value="" style="shape=umlLifeline;perimeter=lifelinePerimeter;whiteSpace=wrap;html=1;container=1;dropTarget=0;collapsible=0;recursiveResize=0;outlineConnect=0;portConstraint=eastwest;newEdgeStyle={&quot;edgeStyle&quot;:&quot;elbowEdgeStyle&quot;,&quot;elbow&quot;:&quot;vertical&quot;,&quot;curved&quot;:0,&quot;rounded&quot;:0};participant=umlActor;" vertex="1" parent="1">
          <mxGeometry x="120" y="-420" width="20" height="350" as="geometry" />
        </mxCell>
        <mxCell id="I_KAH7yRZfsrXpWgZWDP-12" style="edgeStyle=elbowEdgeStyle;rounded=0;orthogonalLoop=1;jettySize=auto;html=1;elbow=vertical;curved=0;" edge="1" parent="1" source="I_KAH7yRZfsrXpWgZWDP-8" target="I_KAH7yRZfsrXpWgZWDP-7">
          <mxGeometry relative="1" as="geometry">
            <Array as="points">
              <mxPoint x="310" y="-300" />
              <mxPoint x="290" y="-140" />
              <mxPoint x="330" y="-160" />
              <mxPoint x="320" y="-160" />
              <mxPoint x="280" y="-200" />
              <mxPoint x="300" y="-230" />
            </Array>
          </mxGeometry>
        </mxCell>
        <mxCell id="I_KAH7yRZfsrXpWgZWDP-22" value="question" style="edgeLabel;html=1;align=center;verticalAlign=middle;resizable=0;points=[];" vertex="1" connectable="0" parent="I_KAH7yRZfsrXpWgZWDP-12">
          <mxGeometry x="0.0179" y="-3" relative="1" as="geometry">
            <mxPoint x="-2" y="-7" as="offset" />
          </mxGeometry>
        </mxCell>
        <mxCell id="I_KAH7yRZfsrXpWgZWDP-14" style="edgeStyle=elbowEdgeStyle;rounded=0;orthogonalLoop=1;jettySize=auto;html=1;elbow=vertical;curved=0;" edge="1" parent="1">
          <mxGeometry relative="1" as="geometry">
            <mxPoint x="400.0003448275863" y="-140.0000000000001" as="sourcePoint" />
            <mxPoint x="659.6900000000003" y="-140.0000000000001" as="targetPoint" />
            <Array as="points">
              <mxPoint x="500.19" y="-140" />
              <mxPoint x="530.19" y="-110" />
              <mxPoint x="490.19" y="-170" />
              <mxPoint x="510.19" y="-180" />
            </Array>
          </mxGeometry>
        </mxCell>
        <mxCell id="I_KAH7yRZfsrXpWgZWDP-19" value="better answer" style="edgeLabel;html=1;align=center;verticalAlign=middle;resizable=0;points=[];" vertex="1" connectable="0" parent="I_KAH7yRZfsrXpWgZWDP-14">
          <mxGeometry x="0.1189" y="1" relative="1" as="geometry">
            <mxPoint x="-5" y="-9" as="offset" />
          </mxGeometry>
        </mxCell>
        <mxCell id="I_KAH7yRZfsrXpWgZWDP-26" style="edgeStyle=elbowEdgeStyle;rounded=0;orthogonalLoop=1;jettySize=auto;html=1;elbow=vertical;curved=0;" edge="1" parent="1">
          <mxGeometry relative="1" as="geometry">
            <mxPoint x="399.6900000000002" y="-100" as="sourcePoint" />
            <mxPoint x="130.00034482758605" y="-100" as="targetPoint" />
            <Array as="points">
              <mxPoint x="230.19" y="-100" />
            </Array>
          </mxGeometry>
        </mxCell>
        <mxCell id="I_KAH7yRZfsrXpWgZWDP-27" value="final answer" style="edgeLabel;html=1;align=center;verticalAlign=middle;resizable=0;points=[];" vertex="1" connectable="0" parent="I_KAH7yRZfsrXpWgZWDP-26">
          <mxGeometry x="-0.0167" y="-3" relative="1" as="geometry">
            <mxPoint y="-7" as="offset" />
          </mxGeometry>
        </mxCell>
        <mxCell id="I_KAH7yRZfsrXpWgZWDP-8" value="Challengee" style="shape=umlLifeline;perimeter=lifelinePerimeter;whiteSpace=wrap;html=1;container=1;dropTarget=0;collapsible=0;recursiveResize=0;outlineConnect=0;portConstraint=eastwest;newEdgeStyle={&quot;edgeStyle&quot;:&quot;elbowEdgeStyle&quot;,&quot;elbow&quot;:&quot;vertical&quot;,&quot;curved&quot;:0,&quot;rounded&quot;:0};" vertex="1" parent="1">
          <mxGeometry x="350" y="-420" width="100" height="350" as="geometry" />
        </mxCell>
        <mxCell id="I_KAH7yRZfsrXpWgZWDP-17" style="edgeStyle=elbowEdgeStyle;rounded=0;orthogonalLoop=1;jettySize=auto;html=1;elbow=vertical;curved=0;" edge="1" parent="1">
          <mxGeometry relative="1" as="geometry">
            <mxPoint x="659.6900000000003" y="-180.0000000000001" as="sourcePoint" />
            <mxPoint x="400.0003448275863" y="-180.0000000000001" as="targetPoint" />
            <Array as="points">
              <mxPoint x="500.19" y="-180" />
              <mxPoint x="520.19" y="-140" />
              <mxPoint x="510.19" y="-220" />
            </Array>
          </mxGeometry>
        </mxCell>
        <mxCell id="I_KAH7yRZfsrXpWgZWDP-18" value="scrutinize, correct, criticize" style="edgeLabel;html=1;align=center;verticalAlign=middle;resizable=0;points=[];" vertex="1" connectable="0" parent="I_KAH7yRZfsrXpWgZWDP-17">
          <mxGeometry x="0.1126" relative="1" as="geometry">
            <mxPoint x="17" y="-10" as="offset" />
          </mxGeometry>
        </mxCell>
        <mxCell id="I_KAH7yRZfsrXpWgZWDP-9" value="Challenger" style="shape=umlLifeline;perimeter=lifelinePerimeter;whiteSpace=wrap;html=1;container=1;dropTarget=0;collapsible=0;recursiveResize=0;outlineConnect=0;portConstraint=eastwest;newEdgeStyle={&quot;edgeStyle&quot;:&quot;elbowEdgeStyle&quot;,&quot;elbow&quot;:&quot;vertical&quot;,&quot;curved&quot;:0,&quot;rounded&quot;:0};" vertex="1" parent="1">
          <mxGeometry x="610" y="-420" width="100" height="350" as="geometry" />
        </mxCell>
        <mxCell id="I_KAH7yRZfsrXpWgZWDP-11" style="edgeStyle=elbowEdgeStyle;rounded=0;orthogonalLoop=1;jettySize=auto;html=1;elbow=vertical;curved=0;" edge="1" parent="1">
          <mxGeometry relative="1" as="geometry">
            <mxPoint x="130" y="-261" as="sourcePoint" />
            <mxPoint x="400" y="-261" as="targetPoint" />
            <Array as="points">
              <mxPoint x="270" y="-261" />
            </Array>
          </mxGeometry>
        </mxCell>
        <mxCell id="I_KAH7yRZfsrXpWgZWDP-23" value="answer" style="edgeLabel;html=1;align=center;verticalAlign=middle;resizable=0;points=[];" vertex="1" connectable="0" parent="I_KAH7yRZfsrXpWgZWDP-11">
          <mxGeometry x="-0.0656" y="1" relative="1" as="geometry">
            <mxPoint x="4" y="-8" as="offset" />
          </mxGeometry>
        </mxCell>
        <mxCell id="I_KAH7yRZfsrXpWgZWDP-13" value="prompt" style="text;html=1;strokeColor=none;fillColor=none;align=center;verticalAlign=middle;whiteSpace=wrap;rounded=0;" vertex="1" parent="1">
          <mxGeometry x="230" y="-370" width="60" height="30" as="geometry" />
        </mxCell>
        <mxCell id="I_KAH7yRZfsrXpWgZWDP-20" style="edgeStyle=elbowEdgeStyle;rounded=0;orthogonalLoop=1;jettySize=auto;html=1;elbow=vertical;curved=0;" edge="1" parent="1">
          <mxGeometry relative="1" as="geometry">
            <mxPoint x="400.19" y="-220" as="sourcePoint" />
            <mxPoint x="659.6900000000003" y="-220.0000000000001" as="targetPoint" />
            <Array as="points">
              <mxPoint x="530.19" y="-220" />
              <mxPoint x="490.19" y="-280" />
              <mxPoint x="510.19" y="-290" />
            </Array>
          </mxGeometry>
        </mxCell>
        <mxCell id="I_KAH7yRZfsrXpWgZWDP-21" value="answer" style="edgeLabel;html=1;align=center;verticalAlign=middle;resizable=0;points=[];" vertex="1" connectable="0" parent="I_KAH7yRZfsrXpWgZWDP-20">
          <mxGeometry x="0.1189" y="1" relative="1" as="geometry">
            <mxPoint x="-15" y="-9" as="offset" />
          </mxGeometry>
        </mxCell>
        <mxCell id="I_KAH7yRZfsrXpWgZWDP-47" style="edgeStyle=elbowEdgeStyle;rounded=0;orthogonalLoop=1;jettySize=auto;html=1;elbow=vertical;curved=0;" edge="1" parent="1">
          <mxGeometry relative="1" as="geometry">
            <mxPoint x="660.19" y="-100" as="sourcePoint" />
            <mxPoint x="400.19" y="-100" as="targetPoint" />
            <Array as="points">
              <mxPoint x="500.19" y="-100" />
              <mxPoint x="520.19" y="-60" />
              <mxPoint x="510.19" y="-140" />
            </Array>
          </mxGeometry>
        </mxCell>
        <mxCell id="I_KAH7yRZfsrXpWgZWDP-48" value="approval" style="edgeLabel;html=1;align=center;verticalAlign=middle;resizable=0;points=[];" vertex="1" connectable="0" parent="I_KAH7yRZfsrXpWgZWDP-47">
          <mxGeometry x="0.1126" relative="1" as="geometry">
            <mxPoint x="17" y="-10" as="offset" />
          </mxGeometry>
        </mxCell>
        <mxCell id="I_KAH7yRZfsrXpWgZWDP-70" style="edgeStyle=elbowEdgeStyle;rounded=0;orthogonalLoop=1;jettySize=auto;html=1;elbow=vertical;curved=0;" edge="1" parent="1" source="I_KAH7yRZfsrXpWgZWDP-71" target="I_KAH7yRZfsrXpWgZWDP-78">
          <mxGeometry relative="1" as="geometry">
            <Array as="points">
              <mxPoint x="310" y="155" />
              <mxPoint x="270" y="165" />
            </Array>
          </mxGeometry>
        </mxCell>
        <mxCell id="I_KAH7yRZfsrXpWgZWDP-71" value="" style="shape=umlLifeline;perimeter=lifelinePerimeter;whiteSpace=wrap;html=1;container=1;dropTarget=0;collapsible=0;recursiveResize=0;outlineConnect=0;portConstraint=eastwest;newEdgeStyle={&quot;edgeStyle&quot;:&quot;elbowEdgeStyle&quot;,&quot;elbow&quot;:&quot;vertical&quot;,&quot;curved&quot;:0,&quot;rounded&quot;:0};participant=umlActor;" vertex="1" parent="1">
          <mxGeometry x="120" y="75" width="20" height="350" as="geometry" />
        </mxCell>
        <mxCell id="I_KAH7yRZfsrXpWgZWDP-72" style="edgeStyle=elbowEdgeStyle;rounded=0;orthogonalLoop=1;jettySize=auto;html=1;elbow=vertical;curved=0;" edge="1" parent="1" source="I_KAH7yRZfsrXpWgZWDP-78" target="I_KAH7yRZfsrXpWgZWDP-71">
          <mxGeometry relative="1" as="geometry">
            <Array as="points">
              <mxPoint x="310" y="195" />
              <mxPoint x="290" y="355" />
              <mxPoint x="330" y="335" />
              <mxPoint x="320" y="335" />
              <mxPoint x="280" y="295" />
              <mxPoint x="300" y="265" />
            </Array>
          </mxGeometry>
        </mxCell>
        <mxCell id="I_KAH7yRZfsrXpWgZWDP-73" value="what type of joke?" style="edgeLabel;html=1;align=center;verticalAlign=middle;resizable=0;points=[];" vertex="1" connectable="0" parent="I_KAH7yRZfsrXpWgZWDP-72">
          <mxGeometry x="0.0179" y="-3" relative="1" as="geometry">
            <mxPoint x="3" y="-7" as="offset" />
          </mxGeometry>
        </mxCell>
        <mxCell id="I_KAH7yRZfsrXpWgZWDP-74" style="edgeStyle=elbowEdgeStyle;rounded=0;orthogonalLoop=1;jettySize=auto;html=1;elbow=vertical;curved=0;" edge="1" parent="1">
          <mxGeometry relative="1" as="geometry">
            <mxPoint x="400.0003448275863" y="354.9999999999999" as="sourcePoint" />
            <mxPoint x="659.6900000000003" y="354.9999999999999" as="targetPoint" />
            <Array as="points">
              <mxPoint x="500.19" y="355" />
              <mxPoint x="530.19" y="385" />
              <mxPoint x="490.19" y="325" />
              <mxPoint x="510.19000000000005" y="315" />
            </Array>
          </mxGeometry>
        </mxCell>
        <mxCell id="I_KAH7yRZfsrXpWgZWDP-75" value="your mom&#39;s so sweet, even sugar gets jealous" style="edgeLabel;html=1;align=center;verticalAlign=middle;resizable=0;points=[];" vertex="1" connectable="0" parent="I_KAH7yRZfsrXpWgZWDP-74">
          <mxGeometry x="0.1189" y="1" relative="1" as="geometry">
            <mxPoint x="-5" y="-9" as="offset" />
          </mxGeometry>
        </mxCell>
        <mxCell id="I_KAH7yRZfsrXpWgZWDP-76" style="edgeStyle=elbowEdgeStyle;rounded=0;orthogonalLoop=1;jettySize=auto;html=1;elbow=vertical;curved=0;" edge="1" parent="1">
          <mxGeometry relative="1" as="geometry">
            <mxPoint x="399.6900000000002" y="395" as="sourcePoint" />
            <mxPoint x="130.00034482758605" y="395" as="targetPoint" />
            <Array as="points">
              <mxPoint x="230.19" y="395" />
            </Array>
          </mxGeometry>
        </mxCell>
        <mxCell id="I_KAH7yRZfsrXpWgZWDP-91" value="your mom&#39;s so sweet, even sugar gets jealous" style="edgeLabel;html=1;align=center;verticalAlign=middle;resizable=0;points=[];" vertex="1" connectable="0" parent="I_KAH7yRZfsrXpWgZWDP-76">
          <mxGeometry x="-0.0353" y="-3" relative="1" as="geometry">
            <mxPoint x="-4" y="-12" as="offset" />
          </mxGeometry>
        </mxCell>
        <mxCell id="I_KAH7yRZfsrXpWgZWDP-78" value="Challengee" style="shape=umlLifeline;perimeter=lifelinePerimeter;whiteSpace=wrap;html=1;container=1;dropTarget=0;collapsible=0;recursiveResize=0;outlineConnect=0;portConstraint=eastwest;newEdgeStyle={&quot;edgeStyle&quot;:&quot;elbowEdgeStyle&quot;,&quot;elbow&quot;:&quot;vertical&quot;,&quot;curved&quot;:0,&quot;rounded&quot;:0};" vertex="1" parent="1">
          <mxGeometry x="350" y="75" width="100" height="350" as="geometry" />
        </mxCell>
        <mxCell id="I_KAH7yRZfsrXpWgZWDP-79" style="edgeStyle=elbowEdgeStyle;rounded=0;orthogonalLoop=1;jettySize=auto;html=1;elbow=vertical;curved=0;" edge="1" parent="1">
          <mxGeometry relative="1" as="geometry">
            <mxPoint x="659.6900000000003" y="314.9999999999999" as="sourcePoint" />
            <mxPoint x="400.0003448275863" y="314.9999999999999" as="targetPoint" />
            <Array as="points">
              <mxPoint x="500.19" y="315" />
              <mxPoint x="520.19" y="355" />
              <mxPoint x="510.19000000000005" y="275" />
            </Array>
          </mxGeometry>
        </mxCell>
        <mxCell id="I_KAH7yRZfsrXpWgZWDP-80" value="that&#39;s offensive" style="edgeLabel;html=1;align=center;verticalAlign=middle;resizable=0;points=[];" vertex="1" connectable="0" parent="I_KAH7yRZfsrXpWgZWDP-79">
          <mxGeometry x="0.1126" relative="1" as="geometry">
            <mxPoint x="17" y="-10" as="offset" />
          </mxGeometry>
        </mxCell>
        <mxCell id="I_KAH7yRZfsrXpWgZWDP-81" value="Challenger" style="shape=umlLifeline;perimeter=lifelinePerimeter;whiteSpace=wrap;html=1;container=1;dropTarget=0;collapsible=0;recursiveResize=0;outlineConnect=0;portConstraint=eastwest;newEdgeStyle={&quot;edgeStyle&quot;:&quot;elbowEdgeStyle&quot;,&quot;elbow&quot;:&quot;vertical&quot;,&quot;curved&quot;:0,&quot;rounded&quot;:0};" vertex="1" parent="1">
          <mxGeometry x="610" y="75" width="100" height="350" as="geometry" />
        </mxCell>
        <mxCell id="I_KAH7yRZfsrXpWgZWDP-82" style="edgeStyle=elbowEdgeStyle;rounded=0;orthogonalLoop=1;jettySize=auto;html=1;elbow=vertical;curved=0;" edge="1" parent="1">
          <mxGeometry relative="1" as="geometry">
            <mxPoint x="130" y="234" as="sourcePoint" />
            <mxPoint x="400" y="234" as="targetPoint" />
            <Array as="points">
              <mxPoint x="270" y="234" />
            </Array>
          </mxGeometry>
        </mxCell>
        <mxCell id="I_KAH7yRZfsrXpWgZWDP-83" value="your mom joke" style="edgeLabel;html=1;align=center;verticalAlign=middle;resizable=0;points=[];" vertex="1" connectable="0" parent="I_KAH7yRZfsrXpWgZWDP-82">
          <mxGeometry x="-0.0656" y="1" relative="1" as="geometry">
            <mxPoint x="4" y="-8" as="offset" />
          </mxGeometry>
        </mxCell>
        <mxCell id="I_KAH7yRZfsrXpWgZWDP-84" value="make a joke" style="text;html=1;strokeColor=none;fillColor=none;align=center;verticalAlign=middle;whiteSpace=wrap;rounded=0;" vertex="1" parent="1">
          <mxGeometry x="230" y="130" width="70" height="30" as="geometry" />
        </mxCell>
        <mxCell id="I_KAH7yRZfsrXpWgZWDP-85" style="edgeStyle=elbowEdgeStyle;rounded=0;orthogonalLoop=1;jettySize=auto;html=1;elbow=vertical;curved=0;" edge="1" parent="1">
          <mxGeometry relative="1" as="geometry">
            <mxPoint x="400.19" y="275" as="sourcePoint" />
            <mxPoint x="659.6900000000003" y="274.9999999999999" as="targetPoint" />
            <Array as="points">
              <mxPoint x="530.19" y="275" />
              <mxPoint x="490.19" y="215" />
              <mxPoint x="510.19000000000005" y="205" />
            </Array>
          </mxGeometry>
        </mxCell>
        <mxCell id="I_KAH7yRZfsrXpWgZWDP-86" value="your mom&#39;s so dense, she bends light around her" style="edgeLabel;html=1;align=center;verticalAlign=middle;resizable=0;points=[];" vertex="1" connectable="0" parent="I_KAH7yRZfsrXpWgZWDP-85">
          <mxGeometry x="0.1189" y="1" relative="1" as="geometry">
            <mxPoint x="-15" y="-9" as="offset" />
          </mxGeometry>
        </mxCell>
        <mxCell id="I_KAH7yRZfsrXpWgZWDP-87" style="edgeStyle=elbowEdgeStyle;rounded=0;orthogonalLoop=1;jettySize=auto;html=1;elbow=vertical;curved=0;" edge="1" parent="1">
          <mxGeometry relative="1" as="geometry">
            <mxPoint x="660.19" y="395" as="sourcePoint" />
            <mxPoint x="400.19" y="395" as="targetPoint" />
            <Array as="points">
              <mxPoint x="500.19" y="395" />
              <mxPoint x="520.19" y="435" />
              <mxPoint x="510.19000000000005" y="355" />
            </Array>
          </mxGeometry>
        </mxCell>
        <mxCell id="I_KAH7yRZfsrXpWgZWDP-88" value="good one" style="edgeLabel;html=1;align=center;verticalAlign=middle;resizable=0;points=[];" vertex="1" connectable="0" parent="I_KAH7yRZfsrXpWgZWDP-87">
          <mxGeometry x="0.1126" relative="1" as="geometry">
            <mxPoint x="17" y="-10" as="offset" />
          </mxGeometry>
        </mxCell>
      </root>
    </mxGraphModel>
  </diagram>
</mxfile>
